<?xml version="1.0" standalone="no"?>
<!DOCTYPE svg PUBLIC "-//W3C//DTD SVG 20010904//EN"
 "http://www.w3.org/TR/2001/REC-SVG-20010904/DTD/svg10.dtd">
<svg version="1.0" xmlns="http://www.w3.org/2000/svg"
 width="360.000000pt" height="360.000000pt" viewBox="0 0 360.000000 360.000000"
 preserveAspectRatio="xMidYMid meet">
<metadata>
Created by potrace 1.14, written by Peter Selinger 2001-2017
</metadata>
<g transform="translate(0.000000,360.000000) scale(0.100000,-0.100000)"
fill="#000000" stroke="none">
<path d="M0 1800 l0 -1800 1660 0 1660 0 0 31 0 32 83 -6 c45 -4 94 -7 110 -7
22 0 27 -4 27 -25 0 -21 5 -25 30 -25 l30 0 0 1800 0 1800 -218 0 c-156 0
-221 -3 -230 -12 -9 -9 -12 -9 -12 0 0 7 -9 12 -21 12 -11 0 -17 -4 -14 -10 3
-5 1 -10 -4 -10 -6 0 -11 5 -11 10 0 7 -522 10 -1545 10 l-1545 0 0 -1800z
m3086 1688 c5 -51 4 -52 -12 -30 -11 17 -14 33 -9 59 8 46 15 37 21 -29z m-56
32 c0 -5 -4 -10 -10 -10 -5 0 -10 5 -10 10 0 6 5 10 10 10 6 0 10 -4 10 -10z
m-1122 -56 c29 -6 28 -20 -3 -28 -14 -4 -25 -14 -26 -24 0 -12 -4 -9 -12 9
-10 22 -14 24 -25 13 -10 -11 -10 -18 2 -36 7 -13 16 -35 20 -50 4 -19 17 -32
41 -42 19 -8 36 -20 36 -25 1 -6 3 -15 4 -21 1 -5 3 -13 4 -16 0 -3 6 -2 11 1
8 5 7 11 -1 21 -7 9 -8 14 -1 14 10 0 28 -38 24 -51 -1 -4 8 -9 18 -12 11 -3
20 -1 20 4 0 5 7 9 15 9 10 0 15 10 15 27 l0 27 20 -22 c24 -25 31 -27 48 -10
9 9 12 9 12 -2 0 -10 4 -9 18 3 10 10 24 17 31 17 7 0 9 4 6 10 -3 6 1 7 9 4
9 -3 16 -14 16 -23 0 -14 -7 -17 -29 -13 -16 2 -32 -1 -36 -8 -9 -15 15 -32
30 -22 6 4 4 0 -5 -8 -9 -8 -15 -28 -14 -45 3 -73 4 -77 19 -71 10 3 15 -1 15
-13 0 -10 -8 -21 -19 -24 -32 -8 -24 -52 12 -65 16 -6 34 -9 39 -6 5 3 17 -4
27 -15 19 -21 37 -29 26 -11 -3 6 3 10 14 10 23 0 41 22 23 28 -8 2 -5 13 9
33 23 32 48 38 51 12 0 -10 2 -22 3 -28 2 -5 3 -16 4 -23 0 -7 9 -12 19 -10
11 2 18 -5 20 -20 5 -33 37 -63 59 -55 26 10 43 29 43 47 0 9 5 16 10 16 6 0
10 -6 10 -14 0 -8 9 -21 20 -29 12 -8 20 -27 22 -50 1 -20 8 -39 15 -41 7 -3
13 -1 13 5 0 7 10 9 25 5 17 -4 25 -2 25 6 0 9 3 9 10 -2 7 -12 12 -11 30 5
18 16 23 17 31 5 7 -11 11 -12 17 -3 16 24 73 -1 68 -30 -2 -12 1 -28 6 -34 8
-10 6 -13 -7 -13 -13 0 -16 -6 -13 -25 6 -28 -1 -31 -22 -12 -8 6 -4 0 9 -15
24 -27 17 -40 -7 -16 -9 9 -12 9 -12 -1 0 -8 -6 -11 -16 -7 -10 4 -25 -1 -35
-10 -17 -15 -18 -15 -25 10 -3 14 -10 26 -15 26 -14 0 -11 -38 4 -52 20 -18 9
-60 -14 -53 -10 3 -27 2 -37 -4 -23 -12 -36 -3 -21 15 6 8 9 21 5 29 -3 9 0
15 8 15 17 0 9 49 -11 69 -18 18 -30 6 -13 -14 11 -13 7 -15 -28 -15 -30 0
-40 4 -36 13 2 7 -9 24 -26 37 -27 21 -44 50 -20 35 10 -6 35 44 26 52 -2 3
-14 -1 -26 -7 -16 -9 -25 -8 -38 2 -22 17 -47 50 -47 63 0 17 -45 18 -51 0 -4
-10 -13 -13 -24 -10 -12 4 -24 -2 -35 -17 -16 -21 -16 -22 -11 -2 5 16 0 23
-19 32 -14 7 -33 12 -41 12 -13 0 -60 25 -74 40 -8 9 -49 30 -57 30 -5 0 -1
-4 7 -10 8 -5 11 -12 8 -15 -9 -10 -28 4 -28 20 0 7 7 21 16 30 15 15 15 18
-5 39 -11 12 -21 28 -21 34 0 7 -6 12 -14 12 -19 0 -40 26 -26 35 5 3 10 11
10 17 0 7 -6 6 -15 -2 -13 -11 -15 -8 -15 14 0 22 -3 25 -17 18 -10 -5 -23 -7
-30 -5 -6 2 -13 -4 -15 -14 -3 -16 -7 -14 -31 11 -15 17 -25 22 -21 13 9 -24
-13 -21 -26 3 -8 16 -8 20 2 18 7 -2 13 6 13 17 0 11 3 25 8 32 4 6 3 14 -3
18 -5 3 -10 -1 -10 -9 0 -24 -17 -19 -36 9 -13 20 -20 23 -35 14 -10 -5 -19
-17 -20 -27 0 -10 -3 -12 -6 -4 -2 6 -9 12 -14 12 -6 0 -7 -5 -3 -12 5 -8 2
-9 -11 -4 -15 5 -16 4 -5 -9 9 -11 10 -18 1 -29 -9 -11 -9 -15 1 -19 8 -4 7
-6 -4 -6 -12 -1 -18 6 -18 22 0 12 -4 17 -8 12 -12 -18 -62 -46 -62 -35 0 5 5
10 10 10 6 0 10 11 10 25 0 14 -4 25 -10 25 -5 0 -7 7 -3 16 3 9 13 14 24 11
11 -3 16 -1 13 5 -4 6 2 7 17 3 23 -7 23 -7 -4 19 -15 14 -32 26 -38 26 -5 0
-9 5 -9 11 0 8 18 10 55 7 30 -3 55 -1 55 3 0 4 8 9 17 11 15 3 15 4 -1 21
-15 14 -16 20 -5 33 10 13 10 17 0 24 -38 23 31 32 117 14z m997 -14 c-3 -5
-11 -10 -16 -10 -6 0 -7 5 -4 10 3 6 11 10 16 10 6 0 7 -4 4 -10z m118 -15 c4
-8 2 -17 -3 -20 -6 -4 -10 3 -10 14 0 25 6 27 13 6z m67 -9 c0 -3 -4 -8 -10
-11 -5 -3 -10 -1 -10 4 0 6 5 11 10 11 6 0 10 -2 10 -4z m-70 -34 c0 -13 -12
-22 -22 -16 -10 6 -1 24 13 24 5 0 9 -4 9 -8z m-1095 -12 c3 -6 -1 -7 -9 -4
-18 7 -21 14 -7 14 6 0 13 -4 16 -10z m-950 -50 c3 -5 -1 -10 -10 -10 -9 0
-13 5 -10 10 3 6 8 10 10 10 2 0 7 -4 10 -10z m1880 -11 c10 -14 1 -21 -19
-13 -9 3 -13 10 -10 15 7 12 21 11 29 -2z m117 -40 c-1 -24 2 -38 8 -34 6 3
10 2 10 -4 0 -5 -4 -13 -10 -16 -5 -3 -10 -2 -10 3 0 5 -10 13 -21 18 -15 7
-22 20 -24 42 -2 17 0 30 4 28 4 -3 13 -1 21 4 20 12 24 6 22 -41z m-1408 16
c3 -9 0 -15 -9 -15 -16 0 -27 14 -18 24 10 10 21 7 27 -9z m1741 -35 c-3 -5
-12 -10 -18 -10 -7 0 -6 4 3 10 19 12 23 12 15 0z m-1768 -28 c-8 -10 -18 -32
-22 -50 -4 -18 -11 -30 -16 -26 -5 3 -12 -2 -16 -12 -8 -21 22 -45 45 -37 13
4 12 1 -3 -11 -20 -17 -20 -17 6 -12 33 7 61 -19 31 -28 -11 -4 -27 -3 -37 0
-14 6 -16 4 -10 -6 6 -10 4 -12 -7 -7 -23 8 -29 -2 -16 -26 8 -16 8 -19 -5
-14 -8 3 -23 0 -33 -8 -10 -7 -24 -11 -31 -8 -7 3 -13 0 -13 -7 0 -7 -8 -9
-20 -5 -25 8 -51 -11 -43 -31 3 -9 -2 -14 -17 -14 -14 0 -19 4 -14 12 5 7 9
21 9 30 1 14 -3 17 -19 12 -28 -8 -37 -17 -40 -40 -3 -17 -8 -20 -36 -15 -14
2 0 31 16 31 8 0 14 5 14 10 0 13 -26 13 -51 -1 -16 -8 -25 -7 -37 3 -9 8 -29
20 -44 28 -16 7 -28 17 -28 22 0 4 -7 8 -15 8 -8 0 -15 5 -15 10 0 6 7 13 15
15 8 3 23 8 33 11 21 6 28 3 24 -12 -1 -7 14 -14 35 -16 21 -3 46 -8 57 -13
16 -7 17 -6 7 13 -7 12 -20 22 -31 22 -10 0 -22 5 -25 10 -4 7 2 9 19 4 21 -5
25 -3 20 10 -4 11 0 16 12 18 11 0 25 2 32 2 7 1 22 12 32 26 11 14 20 22 20
18 0 -4 11 -3 24 2 19 7 26 5 30 -7 5 -13 10 -12 29 8 13 13 22 27 20 32 -2 4
8 7 23 7 27 0 27 -1 8 -14 -10 -8 -17 -17 -14 -19 3 -3 15 3 28 13 l22 18 -35
12 c-38 12 -51 50 -17 50 20 0 54 -20 35 -20 -7 0 -13 -4 -13 -9 0 -6 9 -9 20
-8 12 1 20 8 20 18 0 10 8 19 18 22 27 6 35 -3 19 -21z m1363 17 c11 18 30 5
30 -21 0 -14 -5 -18 -15 -14 -17 6 -21 -9 -5 -19 6 -4 7 -13 1 -23 -4 -9 -6
-24 -3 -32 4 -12 3 -13 -10 -3 -19 16 -28 7 -28 -29 0 -15 -5 -28 -11 -28 -7
0 -9 9 -5 23 3 12 6 33 6 46 0 16 4 21 14 18 8 -3 17 -3 20 0 8 8 -13 45 -22
39 -5 -3 -9 9 -10 26 -2 27 -1 29 13 18 14 -11 18 -11 25 -1z m-575 -9 c3 -5
1 -10 -4 -10 -6 0 -11 5 -11 10 0 6 2 10 4 10 3 0 8 -4 11 -10z m-35 -14 c0
-3 -4 -8 -10 -11 -5 -3 -10 -1 -10 4 0 6 5 11 10 11 6 0 10 -2 10 -4z m30 -16
c0 -5 -5 -10 -11 -10 -5 0 -7 5 -4 10 3 6 8 10 11 10 2 0 4 -4 4 -10z m-1535
-11 c10 -15 -1 -23 -20 -15 -9 3 -13 10 -10 16 8 13 22 13 30 -1z m1755 7 c0
-11 -19 -15 -25 -6 -3 5 1 10 9 10 9 0 16 -2 16 -4z m-1280 -16 c0 -5 -7 -10
-15 -10 -8 0 -15 -5 -15 -12 0 -6 -2 -9 -5 -6 -3 3 -3 13 1 22 7 17 34 22 34
6z m1716 -5 c-3 -8 -1 -15 5 -15 12 0 2 -64 -14 -95 -6 -11 -12 -27 -13 -35
-2 -8 -10 -20 -18 -26 -16 -11 -22 -34 -10 -34 4 0 17 12 30 28 17 19 24 22
24 11 0 -20 -40 -57 -62 -56 -22 0 -22 13 -3 51 8 15 15 36 15 46 0 10 6 21
13 23 8 4 7 6 -3 6 -22 1 -20 44 3 68 9 11 17 25 17 31 0 7 5 12 11 12 6 0 9
-7 5 -15z m167 -5 c6 -24 -8 -36 -17 -14 -8 22 -7 34 3 34 5 0 11 -9 14 -20z
m-1589 -12 c-4 -6 0 -14 7 -19 12 -8 12 -11 -1 -19 -28 -18 -41 -12 -34 18 9
36 14 43 25 36 5 -3 6 -10 3 -16z m226 16 c0 -3 -7 -12 -15 -20 -16 -17 -18
-14 -9 10 6 15 24 23 24 10z m480 -14 c0 -5 -2 -10 -4 -10 -3 0 -8 5 -11 10
-3 6 -1 10 4 10 6 0 11 -4 11 -10z m-336 -9 c3 -4 -5 -22 -18 -39 l-23 -32
-19 21 c-19 21 -18 21 5 40 25 20 46 24 55 10z m1186 -5 c0 -3 -4 -8 -10 -11
-5 -3 -10 -1 -10 4 0 6 5 11 10 11 6 0 10 -2 10 -4z m-1860 -26 c0 -5 -4 -10
-10 -10 -5 0 -10 5 -10 10 0 6 5 10 10 10 6 0 10 -4 10 -10z m487 -27 c0 -10
-4 -23 -9 -30 -5 -7 -7 -16 -4 -21 3 -5 -8 -8 -24 -6 -17 2 -30 0 -30 -5 0 -4
-13 -8 -30 -8 -24 0 -27 3 -18 14 8 10 7 12 -5 8 -8 -4 -18 -2 -21 4 -4 6 8
10 31 11 91 2 115 9 76 24 -15 6 -15 8 -3 16 23 15 37 12 37 -7z m213 -37 c0
-6 -4 -5 -9 3 -5 7 -14 10 -20 7 -12 -8 -15 16 -4 28 8 8 33 -21 33 -38z
m-856 20 c-3 -9 -12 -12 -22 -9 -15 6 -9 11 25 22 1 1 0 -5 -3 -13z m781 -6
c3 -5 1 -10 -4 -10 -6 0 -11 5 -11 10 0 6 2 10 4 10 3 0 8 -4 11 -10z m185 6
c0 -2 -7 -7 -16 -10 -8 -3 -12 -2 -9 4 6 10 25 14 25 6z m-240 -46 c0 -5 -4
-10 -10 -10 -5 0 -10 5 -10 10 0 6 5 10 10 10 6 0 10 -4 10 -10z m-760 -54 c0
-7 -3 -15 -6 -19 -9 -9 -36 21 -29 32 8 13 35 2 35 -13z m2295 14 c3 -5 1 -10
-4 -10 -6 0 -11 5 -11 10 0 6 2 10 4 10 3 0 8 -4 11 -10z m-1378 -49 c26 -10
66 -21 88 -25 22 -4 55 -16 73 -27 37 -21 46 -24 37 -9 -3 6 -3 10 2 10 14 0
29 -14 36 -33 4 -10 11 -16 17 -12 5 3 15 -3 22 -15 7 -11 21 -20 30 -20 10 0
22 -9 28 -20 6 -11 17 -20 24 -20 16 0 99 -80 150 -145 22 -27 47 -57 56 -65
29 -27 72 -166 68 -221 -1 -27 0 -49 5 -49 4 0 7 -7 7 -16 0 -10 -6 -14 -15
-10 -8 3 -15 1 -15 -4 0 -6 4 -10 10 -10 5 0 7 -7 4 -15 -10 -24 -19 -18 -55
34 -23 34 -37 47 -45 41 -6 -6 -14 -7 -17 -3 -4 3 -13 1 -21 -6 -10 -9 -15 -8
-19 2 -3 7 4 19 15 26 13 8 17 18 12 29 -13 30 -12 80 2 75 6 -2 15 0 19 6 3
6 1 11 -4 11 -6 0 -11 6 -11 13 0 8 -10 22 -21 33 -22 19 -22 19 -10 -3 6 -12
11 -26 11 -31 0 -14 -43 -2 -57 15 -6 8 -14 10 -17 5 -7 -12 -98 -5 -107 9
-12 21 -29 -1 -23 -29 l7 -27 -21 20 c-11 12 -16 24 -11 29 9 10 -49 41 -58
32 -3 -2 5 -7 16 -11 12 -3 21 -12 21 -19 0 -7 9 -23 19 -35 16 -18 23 -20 40
-12 29 16 35 -3 7 -24 -13 -10 -22 -24 -19 -32 6 -15 -42 -19 -51 -4 -3 5 -24
7 -46 4 -45 -6 -50 1 -17 28 l22 18 -22 1 c-16 0 -21 4 -17 15 4 10 2 13 -8
10 -16 -6 -18 20 -4 43 5 8 -1 12 -18 12 -16 0 -26 6 -26 15 0 21 -16 19 -33
-5 -15 -21 -36 -23 -49 -5 -4 5 -10 6 -15 1 -4 -4 1 -12 11 -18 14 -8 15 -12
6 -18 -8 -5 -10 -15 -6 -26 7 -18 8 -18 21 0 8 10 19 15 25 11 7 -4 4 -16 -10
-34 -10 -16 -17 -31 -13 -35 3 -3 1 -6 -5 -6 -15 0 -15 13 0 28 9 9 6 12 -14
12 -15 0 -30 5 -33 10 -4 6 -15 8 -25 5 -10 -3 -21 -1 -25 5 -3 6 -10 8 -14 5
-9 -5 -8 -28 3 -68 6 -19 4 -32 -4 -40 -10 -10 -12 -8 -6 7 5 16 4 17 -9 6
-13 -11 -13 -17 7 -49 12 -20 36 -50 55 -67 18 -18 33 -37 33 -43 0 -17 29 -1
35 20 4 11 0 31 -9 44 -23 34 -21 58 3 50 15 -5 23 2 35 27 9 18 26 39 37 46
19 12 18 8 -9 -40 -16 -29 -33 -76 -37 -105 -6 -48 -4 -56 30 -112 24 -39 39
-77 43 -108 2 -26 1 -45 -3 -41 -5 4 -8 20 -7 36 0 15 -8 39 -19 52 -10 14
-19 19 -19 13 0 -20 -28 -15 -39 6 -6 10 -8 21 -5 24 19 19 -103 118 -162 133
-36 9 -141 61 -149 74 -3 6 -15 15 -27 21 -15 8 -19 8 -14 0 4 -6 4 -11 -1
-12 -49 -4 -78 -11 -85 -22 -6 -9 -8 -8 -8 2 0 8 10 25 22 38 22 24 10 33 -14
11 -7 -7 -28 -15 -47 -16 -20 -2 -42 -13 -52 -25 -17 -21 -17 -22 7 -35 13 -7
24 -19 24 -27 0 -7 5 -17 12 -21 7 -4 8 -3 4 4 -12 20 1 13 32 -15 41 -40 46
-60 16 -67 -13 -4 -24 -14 -25 -24 0 -9 -3 -12 -5 -5 -3 7 -13 9 -22 6 -10 -3
-13 -1 -7 4 26 21 47 65 36 76 -8 8 -11 8 -11 -1 0 -7 -12 -26 -27 -43 -33
-37 -39 -100 -11 -118 11 -7 19 -7 23 -1 3 6 15 10 26 10 10 0 19 5 19 11 0 6
-8 9 -18 7 -11 -3 -23 2 -30 12 -9 15 -6 17 19 16 16 -1 29 -4 29 -8 0 -4 24
-31 52 -60 29 -29 53 -56 53 -60 0 -17 17 -19 40 -4 21 14 25 14 25 2 0 -8 -6
-16 -12 -19 -19 -7 97 -20 132 -15 39 6 46 -15 15 -46 -14 -14 -25 -20 -25
-13 0 7 -7 4 -15 -6 -7 -11 -12 -27 -10 -38 2 -10 0 -21 -6 -24 -5 -4 -9 6 -9
20 0 15 -4 35 -10 45 -11 21 9 33 38 23 12 -4 14 -3 7 5 -15 16 -77 18 -104 3
-14 -8 -40 -11 -63 -8 -36 5 -39 3 -35 -14 3 -10 1 -19 -3 -19 -5 0 -2 -16 6
-36 14 -33 14 -37 -3 -50 -25 -19 -36 -17 -28 4 4 9 8 38 10 64 2 36 0 45 -11
41 -8 -3 -13 -18 -12 -37 2 -50 -43 -165 -72 -186 -15 -11 -49 -20 -85 -22
-37 -3 -60 -9 -63 -17 -3 -9 0 -11 8 -6 7 4 16 2 21 -6 8 -12 11 -12 19 1 6 9
10 10 10 3 0 -9 11 -8 42 3 22 8 43 12 46 9 3 -3 0 -5 -6 -5 -7 0 -12 -4 -12
-10 0 -17 26 -11 45 10 10 11 14 20 10 20 -5 0 2 11 15 25 18 19 20 27 11 38
-15 19 -4 46 19 44 18 -1 21 -29 6 -67 -4 -10 5 -22 23 -35 30 -19 30 -20 10
-38 -22 -20 -18 -37 3 -19 17 14 54 77 40 68 -6 -3 -22 -2 -37 4 l-26 10 25
27 c19 20 23 33 19 55 -3 17 -1 28 6 28 6 0 11 -12 11 -27 0 -25 1 -25 18 -10
19 17 32 14 32 -9 0 -6 -12 -15 -26 -18 -32 -8 -29 -39 4 -41 15 -1 21 3 18
11 -3 7 7 19 23 27 25 13 29 12 40 -4 17 -28 13 -43 -6 -24 -16 16 -17 16 -25
-4 -10 -27 23 -66 41 -48 8 8 11 7 11 -4 0 -18 -37 -42 -45 -29 -11 18 -24 11
-31 -16 -4 -14 -17 -37 -30 -51 -13 -14 -22 -35 -21 -51 2 -22 -2 -27 -21 -27
-12 0 -27 -7 -32 -15 -7 -12 -12 -11 -30 5 -16 14 -17 20 -8 27 10 6 10 10 -2
18 -13 8 -12 10 3 10 10 0 16 4 12 9 -3 5 -18 8 -33 7 -23 -3 -28 -9 -37 -45
-7 -33 -13 -41 -27 -38 -9 3 -22 -1 -29 -9 -14 -17 -41 -18 -56 -3 -8 8 -13 6
-17 -9 -4 -11 -18 -22 -34 -25 l-27 -5 24 19 c31 25 20 37 -50 53 l-54 11 -3
52 c-3 58 8 126 32 190 27 72 33 130 21 189 -4 19 -3 34 4 38 7 4 9 1 5 -8 -3
-8 4 -32 14 -55 11 -23 16 -43 12 -46 -5 -3 -12 -27 -16 -53 -3 -26 -10 -54
-14 -62 -9 -18 -2 -40 12 -40 7 0 6 5 -1 14 -9 11 -6 12 15 8 19 -3 22 -7 12
-13 -8 -6 1 -6 22 -3 19 4 42 13 50 20 12 12 17 10 37 -8 13 -12 23 -16 23
-10 0 7 7 12 15 12 38 0 46 80 15 167 -11 31 -17 60 -14 64 3 5 -2 9 -10 9
-22 0 -41 39 -27 53 8 8 4 18 -16 37 l-28 26 -35 -25 -35 -25 20 23 c14 17 16
25 8 28 -7 3 -13 9 -13 15 0 6 7 8 15 5 8 -4 17 -2 20 3 4 6 2 10 -3 10 -11 0
61 136 80 150 10 8 -15 36 -40 44 l-24 8 23 16 c22 15 21 15 -27 28 -68 18
-91 17 -114 -6 -11 -11 -41 -26 -68 -32 -26 -7 -60 -22 -77 -34 -49 -35 -62
-40 -42 -17 9 11 17 31 17 45 0 13 3 28 7 32 4 4 8 40 8 81 0 54 4 78 17 91 9
11 20 32 24 47 3 16 12 31 19 34 7 2 18 17 25 33 6 15 21 36 33 46 45 38 133
103 157 116 14 7 44 26 68 41 105 68 204 105 362 136 67 13 75 13 127 -8z
m910 -3 c2 -17 0 -19 -7 -8 -5 8 -6 18 -4 22 8 12 10 10 11 -14z m-1457 3 c0
-5 -6 -14 -14 -20 -10 -9 -15 -8 -19 3 -3 8 -3 17 0 20 9 9 33 7 33 -3z m1407
1 c8 -5 8 -13 -2 -32 -8 -14 -14 -19 -15 -11 0 11 -3 11 -15 1 -18 -15 -18
-10 -5 24 10 27 17 31 37 18z m-99 -27 c0 -14 -4 -25 -9 -25 -5 0 -9 11 -9 25
0 14 4 25 9 25 5 0 9 -11 9 -25z m237 6 c-3 -6 -11 -11 -16 -11 -5 0 -4 6 3
14 14 16 24 13 13 -3z m75 -23 c0 -5 -7 -8 -15 -8 -8 0 -15 7 -15 15 0 8 -4
15 -10 15 -5 0 -10 5 -10 10 0 12 49 -21 50 -32z m70 28 c0 -3 -4 -8 -10 -11
-5 -3 -10 -1 -10 4 0 6 5 11 10 11 6 0 10 -2 10 -4z m111 -33 c17 -20 18 -23
3 -10 -11 9 -26 17 -32 17 -7 0 -12 5 -12 10 0 18 16 11 41 -17z m-606 -3 c3
-5 -1 -10 -9 -10 -9 0 -16 5 -16 10 0 6 4 10 9 10 6 0 13 -4 16 -10z m490 -15
c0 -20 -2 -22 -14 -11 -7 8 -10 19 -7 25 12 18 21 12 21 -14z m-255 -5 c0 -5
-5 -10 -11 -10 -5 0 -7 5 -4 10 3 6 8 10 11 10 2 0 4 -4 4 -10z m92 -2 c-9 -9
-15 -9 -24 0 -9 9 -7 12 12 12 19 0 21 -3 12 -12z m-552 -20 c0 -6 -6 -5 -15
2 -8 7 -15 14 -15 16 0 2 7 1 15 -2 8 -4 15 -11 15 -16z m510 -3 c-13 -16 -50
-21 -50 -7 0 14 7 17 36 20 22 2 25 0 14 -13z m75 -5 c-3 -5 -10 -10 -16 -10
-5 0 -9 5 -9 10 0 6 7 10 16 10 8 0 12 -4 9 -10z m-1765 -20 c0 -11 -4 -20
-10 -20 -5 0 -10 9 -10 20 0 11 5 20 10 20 6 0 10 -9 10 -20z m-516 -11 c-6
-11 -24 -2 -24 11 0 5 7 7 15 4 8 -4 12 -10 9 -15z m2141 12 c-3 -5 -1 -12 5
-16 13 -8 13 -25 0 -25 -5 0 -10 7 -10 15 0 8 -5 15 -11 15 -5 0 -7 5 -4 10 3
6 11 10 16 10 6 0 8 -4 4 -9z m505 -6 c0 -8 -4 -15 -10 -15 -5 0 -10 7 -10 15
0 8 5 15 10 15 6 0 10 -7 10 -15z m-436 -50 c-4 -8 -8 -15 -10 -15 -2 0 -4 7
-4 15 0 8 4 15 10 15 5 0 7 -7 4 -15z m122 -53 c-11 -10 -14 3 -8 33 l7 30 3
-28 c2 -16 1 -31 -2 -35z m74 54 c0 -3 -4 -8 -10 -11 -5 -3 -10 -1 -10 4 0 6
5 11 10 11 6 0 10 -2 10 -4z m-220 -20 c0 -3 -4 -8 -10 -11 -5 -3 -10 -1 -10
4 0 6 5 11 10 11 6 0 10 -2 10 -4z m-1870 -34 c0 -5 -7 -9 -15 -9 -8 0 -12 4
-9 9 3 4 9 8 15 8 5 0 9 -4 9 -8z m20 -32 c0 -5 -4 -10 -9 -10 -6 0 -13 5 -16
10 -3 6 1 10 9 10 9 0 16 -4 16 -10z m-40 -9 c0 -10 -30 -24 -37 -17 -3 3 -2
9 2 15 8 13 35 15 35 2z m1750 -1 c0 -5 -2 -10 -4 -10 -3 0 -8 5 -11 10 -3 6
-1 10 4 10 6 0 11 -4 11 -10z m1 -57 c-12 -20 -14 -14 -5 12 4 9 9 14 11 11 3
-2 0 -13 -6 -23z m-1789 -48 c12 -15 23 -42 24 -60 2 -31 -1 -35 -22 -35 -16
0 -24 -6 -25 -17 -1 -36 -8 -53 -28 -79 -18 -23 -22 -24 -27 -9 -4 9 -2 20 5
24 18 12 3 91 -18 92 -14 1 -14 2 1 6 15 4 15 6 1 23 -9 10 -23 16 -32 13 -14
-4 -14 -3 -1 6 13 10 13 12 0 20 -11 8 -9 12 13 20 35 14 37 14 37 0 0 -5 -4
-7 -10 -4 -5 3 -10 -3 -10 -14 0 -30 16 -26 32 9 16 37 31 38 60 5z m1672 9
c3 -8 2 -12 -4 -9 -6 3 -10 10 -10 16 0 14 7 11 14 -7z m176 -6 c0 -5 -4 -8
-10 -8 -5 0 -7 -8 -4 -17 4 -14 2 -13 -7 2 -7 11 -17 23 -22 27 -6 3 2 5 16 5
15 -1 27 -5 27 -9z m-101 -21 c10 -16 10 -17 -6 -9 -10 5 -24 7 -30 5 -7 -3
-13 1 -13 9 0 20 36 17 49 -5z m-14 -37 c3 -5 3 -15 -1 -21 -6 -11 -23 6 -24
24 0 10 18 9 25 -3z m85 -10 c0 -5 -5 -10 -11 -10 -5 0 -7 5 -4 10 3 6 8 10
11 10 2 0 4 -4 4 -10z m-695 -20 c-3 -5 -12 -10 -18 -10 -7 0 -6 4 3 10 19 12
23 12 15 0z m800 -1 c11 -16 1 -19 -13 -3 -7 8 -8 14 -3 14 5 0 13 -5 16 -11z
m-2218 -25 c-3 -3 -12 -4 -19 -1 -8 3 -5 6 6 6 11 1 17 -2 13 -5z m2147 -13
c4 -5 -3 -7 -14 -4 -23 6 -26 13 -6 13 8 0 17 -4 20 -9z m-480 -18 c-4 -10 -7
-30 -7 -45 0 -15 -5 -29 -12 -32 -15 -6 -19 63 -4 81 17 19 33 16 23 -4z m791
-3 c-3 -5 -11 -10 -16 -10 -6 0 -7 5 -4 10 3 6 11 10 16 10 6 0 7 -4 4 -10z
m-682 -21 c4 -16 3 -18 -9 -8 -16 13 -19 29 -5 29 5 0 11 -9 14 -21z m512 11
c-3 -5 -10 -10 -16 -10 -5 0 -9 5 -9 10 0 6 7 10 16 10 8 0 12 -4 9 -10z
m-220 -21 c-4 -5 -13 -9 -22 -9 -13 0 -13 3 -3 15 13 15 35 11 25 -6z m67 -19
c5 0 8 7 4 15 -4 12 -2 13 14 3 21 -13 19 -21 -8 -24 -9 -2 -29 -5 -45 -8 -27
-6 -27 -5 -10 20 14 22 18 23 25 10 5 -9 14 -16 20 -16z m208 -32 c0 -36 -5
-35 -24 4 -21 41 -20 51 4 36 12 -8 20 -24 20 -40z m-80 22 c0 -11 7 -20 15
-20 8 0 20 -10 26 -22 11 -21 65 -78 74 -78 3 0 2 7 -1 15 -4 9 0 15 9 15 25
0 29 -18 7 -33 -20 -14 -20 -15 9 -38 33 -26 32 -56 -1 -38 -11 6 -29 9 -39 6
-10 -3 -19 -1 -19 4 0 5 -9 9 -19 9 -14 0 -18 -5 -14 -20 8 -30 -3 -24 -28 16
-21 35 -21 37 -5 65 15 26 15 30 2 35 -8 3 -18 14 -21 25 -4 10 -12 19 -20 19
-11 0 -11 6 -2 30 13 34 27 40 27 10z m-520 1 c0 -6 -4 -13 -10 -16 -5 -3 -10
1 -10 9 0 9 5 16 10 16 6 0 10 -4 10 -9z m-190 -15 c0 -8 -4 -18 -10 -21 -5
-3 -10 3 -10 14 0 12 5 21 10 21 6 0 10 -6 10 -14z m-1422 -8 c9 -9 12 -9 12
0 0 7 5 12 10 12 6 0 10 -7 10 -16 0 -9 9 -18 20 -21 15 -4 18 -9 10 -18 -6
-7 -10 -17 -9 -21 5 -27 -1 -36 -16 -24 -8 6 -20 8 -27 4 -12 -8 -69 -6 -77 2
-2 2 2 10 9 19 7 8 9 22 6 31 -4 10 1 22 11 30 22 17 26 17 41 2z m1482 8 c0
-3 -4 -8 -10 -11 -5 -3 -10 -1 -10 4 0 6 5 11 10 11 6 0 10 -2 10 -4z m550
-21 c0 -8 -4 -17 -10 -20 -6 -3 -9 4 -8 19 2 25 18 26 18 1z m-910 5 c0 -5 -4
-10 -10 -10 -5 0 -10 5 -10 10 0 6 5 10 10 10 6 0 10 -4 10 -10z m1224 2 c3
-5 -1 -9 -9 -9 -8 0 -12 4 -9 9 3 4 7 8 9 8 2 0 6 -4 9 -8z m-1790 -21 c3 -5
-3 -11 -13 -14 -14 -3 -18 -1 -14 9 6 16 19 18 27 5z m151 -11 c-3 -5 -12 -10
-18 -10 -7 0 -6 4 3 10 19 12 23 12 15 0z m1275 -10 c11 -7 12 -12 3 -21 -13
-13 -33 -4 -33 17 0 16 9 18 30 4z m-442 -67 c-3 -12 -6 -12 -22 0 -16 12 -17
17 -6 37 l13 24 9 -24 c5 -13 7 -30 6 -37z m-1380 28 c-7 -11 -15 -18 -20 -15
-11 7 3 34 18 34 12 0 12 -4 2 -19z m1322 -36 c17 -28 25 -33 35 -25 11 10 12
7 2 -14 -7 -14 -15 -26 -18 -26 -7 0 -49 78 -49 91 0 16 8 9 30 -26z m486 10
c-8 -22 6 -26 26 -8 18 16 18 16 12 -3 -4 -10 -12 -22 -18 -26 -7 -4 -5 -9 4
-12 44 -13 50 -16 50 -24 0 -5 -11 -7 -25 -4 -29 5 -34 -12 -7 -27 14 -8 15
-12 5 -22 -11 -11 -13 -10 -13 0 0 8 -11 24 -25 37 -14 13 -25 28 -25 35 0 9
-3 9 -14 0 -7 -6 -21 -9 -30 -5 -26 10 -18 41 16 62 33 21 53 20 44 -3z
m-1835 -19 c6 3 18 -4 26 -16 12 -17 17 -19 24 -9 7 11 12 11 26 -3 16 -17 16
-18 -2 -18 -17 0 -18 -2 -5 -11 11 -7 12 -12 3 -15 -7 -3 -10 -13 -7 -22 3 -9
-1 -6 -10 8 -13 22 -15 23 -21 8 -4 -10 -12 -18 -17 -18 -6 0 -8 6 -5 14 3 8
-1 20 -9 26 -11 10 -14 9 -14 -7 0 -10 -7 -28 -15 -39 -13 -17 -14 -17 -15 -1
0 9 5 17 10 17 6 0 10 5 10 10 0 6 -7 10 -15 10 -8 0 -15 -4 -15 -9 0 -5 -9
-7 -20 -4 -11 3 -20 8 -20 12 1 13 39 85 40 74 0 -7 5 -13 11 -13 6 0 8 9 4
23 l-7 22 17 -23 c9 -12 21 -20 26 -16z m1975 6 c-18 -16 -18 -16 -6 6 6 13
14 21 18 18 3 -4 -2 -14 -12 -24z m194 8 c0 -5 -5 -10 -11 -10 -5 0 -7 5 -4
10 3 6 8 10 11 10 2 0 4 -4 4 -10z m-2315 -10 c3 -5 1 -10 -4 -10 -6 0 -11 5
-11 10 0 6 2 10 4 10 3 0 8 -4 11 -10z m1803 -30 c-1 -16 -4 -30 -9 -30 -4 0
-16 -3 -26 -6 -16 -5 -16 -4 2 11 16 13 17 17 6 24 -16 10 -6 31 14 31 9 0 13
-11 13 -30z m285 13 c3 -5 -1 -14 -9 -21 -12 -11 -14 -9 -14 8 0 20 14 27 23
13z m347 -8 c0 -8 -4 -15 -10 -15 -5 0 -10 7 -10 15 0 8 5 15 10 15 6 0 10 -7
10 -15z m-2100 -15 c0 -5 -5 -10 -11 -10 -5 0 -7 5 -4 10 3 6 8 10 11 10 2 0
4 -4 4 -10z m1795 -11 c-10 -15 -25 -10 -19 6 4 8 10 12 15 9 5 -3 7 -10 4
-15z m-205 -15 c0 -9 -5 -14 -12 -12 -18 6 -21 28 -4 28 9 0 16 -7 16 -16z
m330 2 c0 -10 -33 -36 -46 -36 -11 0 -10 4 3 20 15 18 43 28 43 16z m380 -6
c0 -5 -5 -10 -11 -10 -5 0 -7 5 -4 10 3 6 8 10 11 10 2 0 4 -4 4 -10z m-450
-40 c0 -5 -9 -6 -20 -3 -20 5 -25 15 -13 26 7 8 33 -11 33 -23z m167 -11 c7
-18 10 -36 7 -41 -3 -5 2 -15 11 -22 15 -11 15 -13 1 -25 -14 -12 -16 -11 -16
7 0 11 -6 23 -12 25 -10 4 -10 7 0 15 10 7 10 11 -3 22 -15 13 -21 50 -7 50 4
0 13 -14 19 -31z m-2273 -5 c20 -20 20 -34 1 -34 -8 0 -15 -4 -15 -10 0 -5 -7
-10 -15 -10 -8 0 -15 5 -15 11 0 5 -4 8 -10 4 -5 -3 -7 -12 -3 -20 3 -8 0 -15
-6 -15 -10 0 -31 39 -31 58 0 9 40 29 62 31 9 0 24 -6 32 -15z m1996 -9 c5 3
10 2 10 -4 0 -5 3 -17 6 -25 5 -12 2 -15 -11 -9 -15 5 -17 2 -12 -17 5 -21 5
-22 -10 -8 -8 9 -17 31 -19 48 -3 27 -2 30 11 20 8 -6 19 -9 25 -5z m240 -11
c0 -8 -4 -14 -10 -14 -5 0 -10 9 -10 21 0 11 5 17 10 14 6 -3 10 -13 10 -21z
m-515 6 c13 -6 15 -9 5 -9 -12 -1 -12 -3 -2 -9 18 -12 4 -42 -21 -42 -11 0
-17 3 -14 7 4 3 1 13 -6 21 -10 13 -9 14 2 8 10 -7 12 -3 6 13 -7 23 -2 25 30
11z m215 -4 c0 -17 -14 -29 -23 -20 -8 8 3 34 14 34 5 0 9 -6 9 -14z m-50 -11
c0 -8 -2 -15 -4 -15 -2 0 -6 7 -10 15 -3 8 -1 15 4 15 6 0 10 -7 10 -15z
m-725 -3 c6 -4 10 -14 10 -22 0 -8 5 -14 12 -13 9 2 10 -4 3 -23 -17 -43 -13
-66 10 -59 15 5 22 0 30 -21 6 -15 18 -34 28 -42 16 -13 16 -13 0 -8 -27 8
-21 -2 11 -18 22 -12 37 -13 65 -5 20 5 36 11 36 13 0 2 -21 2 -47 0 l-48 -4
45 13 c36 10 47 10 53 0 4 -7 6 -17 3 -22 -3 -4 30 -7 74 -5 49 2 80 0 80 -6
0 -6 -6 -11 -12 -11 -7 -1 -20 -3 -28 -4 -30 -3 -71 -25 -65 -35 3 -5 0 -10
-9 -10 -8 0 -16 5 -18 11 -2 6 -27 11 -55 12 -32 1 -58 9 -70 20 -11 9 -25 17
-31 17 -6 0 -25 12 -42 26 -17 15 -34 24 -37 20 -4 -3 -1 -6 5 -6 7 0 12 -7
12 -15 0 -9 7 -18 15 -21 8 -4 15 -12 15 -20 0 -8 5 -14 10 -14 6 0 10 -9 10
-20 0 -15 7 -20 28 -21 15 0 20 -3 12 -6 -8 -3 -34 -15 -57 -26 -37 -18 -46
-19 -70 -7 -16 7 -23 15 -16 17 15 5 5 33 -11 33 -18 0 -68 61 -62 77 3 7 1
13 -4 13 -6 0 -10 5 -10 10 0 6 6 10 14 10 9 0 12 7 9 20 -3 11 -9 17 -14 14
-5 -3 -9 0 -9 7 0 7 25 36 55 66 30 30 55 57 55 61 0 3 -5 1 -12 -6 -7 -7 -17
-12 -22 -12 -6 0 -2 7 8 15 22 17 27 18 41 7z m-882 -18 c16 -6 12 -44 -5 -44
-6 0 -8 -6 -5 -14 3 -8 -1 -22 -8 -33 -11 -15 -16 -16 -27 -5 -11 11 -10 14 1
21 8 5 9 11 3 15 -12 7 -4 48 12 58 13 9 11 9 29 2z m1620 -17 c4 3 7 1 7 -6
0 -21 -44 -8 -49 14 -3 19 -3 19 16 2 11 -9 23 -14 26 -10z m-2008 3 c3 -5 -1
-10 -9 -10 -9 0 -16 5 -16 10 0 6 4 10 9 10 6 0 13 -4 16 -10z m118 -10 c-3
-11 -9 -20 -14 -20 -14 0 -11 28 4 33 6 3 13 6 14 6 0 1 -1 -8 -4 -19z m807
10 c0 -5 -4 -10 -10 -10 -5 0 -10 5 -10 10 0 6 5 10 10 10 6 0 10 -4 10 -10z
m1150 -15 c11 -13 8 -15 -19 -15 -30 0 -39 9 -24 23 11 11 30 8 43 -8z m-1505
-5 c-3 -5 -1 -10 6 -10 7 0 2 -9 -11 -20 -12 -11 -27 -17 -31 -14 -16 10 -49
-7 -49 -24 0 -25 -52 -44 -94 -36 -20 3 -33 10 -31 15 3 4 12 6 21 2 8 -3 14
-2 13 3 -5 16 30 84 42 84 9 0 8 -4 -1 -15 -16 -19 -3 -40 15 -25 10 8 14 7
18 -2 4 -9 11 -6 24 10 12 15 25 21 36 16 12 -4 17 -1 17 10 0 9 7 16 16 16 8
0 12 -4 9 -10z m1375 0 c0 -5 -6 -7 -14 -4 -8 3 -17 1 -21 -5 -3 -6 -11 -11
-17 -11 -7 0 -6 6 2 15 14 17 50 20 50 5z m730 -10 c0 -5 -2 -10 -4 -10 -3 0
-8 5 -11 10 -3 6 -1 10 4 10 6 0 11 -4 11 -10z m-2530 -15 c0 -9 -9 -15 -22
-15 -22 1 -23 1 -4 15 25 19 26 19 26 0z m1790 6 c0 -6 -4 -13 -10 -16 -5 -3
-10 1 -10 9 0 9 5 16 10 16 6 0 10 -4 10 -9z m22 -13 c-7 -7 -12 -8 -12 -2 0
14 12 26 19 19 2 -3 -1 -11 -7 -17z m483 2 c3 -5 1 -10 -4 -10 -6 0 -11 5 -11
10 0 6 2 10 4 10 3 0 8 -4 11 -10z m-2455 -9 c0 -12 -20 -25 -27 -18 -7 7 6
27 18 27 5 0 9 -4 9 -9z m1873 -43 c-28 -10 -30 -9 -27 15 1 12 3 23 3 24 1 2
10 -5 21 -14 19 -16 19 -18 3 -25z m87 3 c23 -6 23 -8 7 -17 -26 -15 -11 -47
19 -41 13 2 24 0 24 -4 0 -5 -7 -9 -15 -9 -17 0 -17 -2 -9 -24 3 -8 12 -12 20
-9 8 3 14 0 14 -6 0 -6 7 -11 15 -11 9 0 12 6 8 16 -5 15 35 64 53 64 4 0 5
-3 1 -6 -3 -4 10 -38 30 -76 19 -38 32 -72 29 -76 -9 -9 -25 18 -20 33 3 6 -2
17 -10 24 -11 9 -18 7 -34 -14 -28 -35 -63 -38 -79 -7 -7 13 -10 28 -7 33 3 5
-2 6 -10 3 -9 -3 -16 -1 -16 6 0 7 -8 9 -22 5 -20 -5 -21 -4 -5 5 21 14 22 40
1 40 -8 0 -12 5 -9 11 4 6 -2 13 -14 16 -12 3 -21 9 -21 13 0 5 -3 15 -6 24
-7 17 11 20 56 7z m229 -4 c6 -8 8 -16 5 -20 -3 -3 3 -3 15 0 16 4 21 1 21
-15 0 -22 -19 -24 -43 -4 -11 10 -17 9 -27 -3 -16 -20 -30 -19 -30 2 0 15 28
51 41 52 4 1 12 -5 18 -12z m-1164 -17 c3 -6 -1 -7 -9 -4 -23 9 -20 -5 6 -25
12 -10 18 -23 14 -29 -10 -17 -19 -14 -39 14 -15 20 -16 28 -7 39 14 17 26 19
35 5z m-332 -153 c-3 -15 -8 -25 -11 -22 -8 8 -11 106 -4 145 6 31 7 28 13
-30 4 -36 5 -78 2 -93z m1207 143 c0 -5 -4 -10 -10 -10 -5 0 -10 5 -10 10 0 6
5 10 10 10 6 0 10 -4 10 -10z m-2090 -4 c0 -3 -4 -8 -10 -11 -5 -3 -10 -1 -10
4 0 6 5 11 10 11 6 0 10 -2 10 -4z m2647 -28 c-3 -7 -5 -2 -5 12 0 14 2 19 5
13 2 -7 2 -19 0 -25z m-2637 2 c0 -5 -5 -10 -11 -10 -5 0 -7 5 -4 10 3 6 8 10
11 10 2 0 4 -4 4 -10z m540 -11 c0 -6 -4 -7 -10 -4 -5 3 -10 11 -10 16 0 6 5
7 10 4 6 -3 10 -11 10 -16z m1512 -1 c-7 -7 -12 -8 -12 -2 0 14 12 26 19 19 2
-3 -1 -11 -7 -17z m-1462 -3 c-7 -9 -15 -13 -17 -11 -7 7 7 26 19 26 6 0 6 -6
-2 -15z m40 -20 c-7 -8 -19 -15 -27 -15 -13 0 -13 3 -3 15 7 8 16 12 21 9 5
-3 9 3 10 13 0 11 3 13 6 5 3 -7 -1 -19 -7 -27z m1370 10 c0 -8 -2 -15 -4 -15
-2 0 -6 7 -10 15 -3 8 -1 15 4 15 6 0 10 -7 10 -15z m375 5 c10 -16 -28 -50
-45 -40 -12 8 -12 12 5 29 23 23 31 25 40 11z m-1655 -30 c0 -5 -4 -10 -10
-10 -5 0 -10 5 -10 10 0 6 5 10 10 10 6 0 10 -4 10 -10z m1682 2 c-8 -5 -10
-16 -5 -28 6 -17 5 -17 -10 -5 -13 10 -15 17 -6 27 6 8 17 14 23 14 7 0 6 -3
-2 -8z m48 -1 c0 -13 -26 -32 -33 -24 -8 7 11 33 24 33 5 0 9 -4 9 -9z m-2165
-13 c35 -16 31 -29 -5 -17 -16 6 -30 15 -30 20 0 12 4 11 35 -3z m1030 -14
c14 -21 19 -24 27 -13 8 12 9 11 5 -1 -5 -20 -35 -25 -63 -9 -26 13 -33 35
-10 26 10 -4 13 -1 9 9 -9 24 14 16 32 -12z m-1050 -14 c-3 -5 -10 -10 -16
-10 -5 0 -9 5 -9 10 0 6 7 10 16 10 8 0 12 -4 9 -10z m955 0 c0 -5 -5 -10 -11
-10 -5 0 -7 5 -4 10 3 6 8 10 11 10 2 0 4 -4 4 -10z m440 2 c0 -4 -12 -9 -27
-10 -22 -1 -24 0 -13 8 18 12 40 13 40 2z m517 -17 c1 -16 1 -16 -3 -2 -6 20
-20 22 -27 5 -3 -8 -6 -5 -6 5 -1 26 33 18 36 -8z m-1887 -9 c0 -3 -4 -8 -10
-11 -5 -3 -10 -1 -10 4 0 6 5 11 10 11 6 0 10 -2 10 -4z m1115 -26 c3 -5 1
-10 -4 -10 -6 0 -11 5 -11 10 0 6 2 10 4 10 3 0 8 -4 11 -10z m557 -5 c0 -5
-5 -11 -11 -13 -6 -2 -11 4 -11 13 0 9 5 15 11 13 6 -2 11 -8 11 -13z m188
-36 c0 -5 -11 -2 -24 7 -16 10 -23 21 -19 31 5 14 9 13 25 -7 10 -12 18 -26
18 -31z m60 33 c-8 -3 -18 -10 -22 -16 -5 -6 -8 -2 -8 11 0 17 4 20 22 15 16
-4 18 -7 8 -10z m-302 -4 c-3 -7 -14 -14 -26 -16 -20 -3 -27 -18 -19 -39 1 -5
11 -7 22 -5 18 2 18 1 3 -10 -8 -7 -18 -20 -21 -28 -4 -10 -6 -8 -6 6 -1 30
-26 37 -47 13 -9 -10 -25 -19 -36 -19 -10 0 -18 -4 -18 -9 0 -13 -25 -20 -39
-11 -10 6 -9 13 4 34 13 19 21 24 28 17 6 -6 18 -11 27 -11 13 0 13 1 0 10
-13 8 -12 10 3 10 21 0 47 23 47 41 0 7 3 9 6 6 4 -3 16 0 28 8 25 18 49 19
44 3z m-297 -20 c-5 -13 -8 -34 -7 -48 1 -14 -1 -35 -5 -47 -5 -13 -4 -23 2
-25 6 -2 7 -12 3 -22 -5 -13 -9 -14 -14 -6 -9 15 -15 -9 -29 -121 -6 -41 -13
-83 -17 -92 -3 -9 -2 -17 2 -17 5 0 16 -5 24 -10 12 -7 11 -13 -10 -34 -13
-15 -31 -26 -40 -26 -18 0 -103 -51 -138 -83 -25 -23 -48 -13 -32 13 7 10 10
11 10 3 0 -22 14 -14 33 19 13 23 15 33 6 39 -7 4 -9 14 -6 23 8 21 -12 20
-29 -1 -12 -17 -13 -16 -14 5 0 12 5 22 10 22 16 0 12 32 -6 44 -16 12 -10 46
8 46 5 0 6 -6 2 -12 -4 -7 -3 -10 1 -6 13 12 17 53 18 176 0 109 7 136 22 90
9 -28 9 -27 0 -58 -3 -14 -3 -20 2 -15 4 6 18 12 29 12 16 1 22 -4 22 -23 0
-17 -4 -22 -12 -15 -8 6 -15 2 -23 -15 -17 -36 7 -42 52 -14 41 25 52 22 35
-10 -6 -11 -9 -26 -6 -33 2 -7 5 -5 5 4 1 9 8 20 17 23 8 3 12 11 9 17 -4 5 1
19 10 29 9 10 23 51 31 91 11 61 27 99 40 99 2 0 0 -10 -5 -22z m719 12 c0 -5
-2 -10 -4 -10 -3 0 -8 5 -11 10 -3 6 -1 10 4 10 6 0 11 -4 11 -10z m-2126 -16
c3 -9 12 -14 19 -11 49 18 56 17 81 -9 14 -15 23 -32 20 -38 -3 -6 4 1 16 17
12 15 28 27 36 27 8 0 14 7 14 16 0 13 5 12 30 -6 17 -12 46 -22 65 -23 23 -1
31 -5 26 -11 -5 -6 -7 -32 -5 -58 3 -37 0 -48 -11 -48 -8 0 -15 6 -15 13 -1 7
-7 4 -15 -7 -8 -10 -12 -23 -9 -27 3 -5 -2 -9 -11 -9 -10 0 -15 -5 -12 -14 5
-13 -17 -38 -44 -49 -11 -4 -11 -6 1 -6 9 -1 25 5 36 13 14 10 25 11 35 5 12
-8 10 -13 -8 -26 -13 -8 -23 -23 -23 -33 0 -11 -20 -27 -60 -46 -33 -15 -60
-35 -60 -43 0 -8 -3 -11 -7 -7 -5 4 -8 13 -8 19 0 5 -6 12 -13 15 -7 2 -10 -2
-7 -11 3 -7 -1 -20 -10 -27 -10 -8 -15 -9 -15 -1 0 6 -13 17 -29 25 -28 15
-29 15 -35 -16 -3 -17 -1 -36 4 -43 8 -9 6 -14 -5 -19 -9 -3 -14 -10 -11 -14
3 -5 -1 -17 -8 -28 -8 -10 -12 -24 -9 -31 3 -8 -2 -13 -12 -13 -15 0 -16 -2
-4 -16 12 -15 11 -16 -11 -9 -21 7 -23 6 -13 -7 7 -8 10 -18 6 -21 -3 -4 -1
-12 5 -20 7 -8 7 -18 2 -27 -15 -23 -13 -45 3 -32 21 18 41 -1 28 -27 -14 -25
-23 -28 -14 -5 5 14 3 14 -18 2 -13 -7 -27 -17 -30 -21 -3 -4 -12 -1 -19 8
-11 13 -11 18 0 28 10 10 11 9 5 -2 -5 -9 -4 -12 3 -7 6 3 11 14 11 24 -1 9 2
27 6 40 6 18 4 22 -11 19 -11 -1 -25 -6 -31 -10 -7 -5 -13 -4 -13 2 0 5 6 11
13 14 9 3 8 13 -6 42 -10 20 -15 40 -12 43 3 3 5 0 5 -6 0 -7 5 -12 11 -12 6
0 9 7 5 15 -3 8 -1 15 4 15 6 0 10 5 10 11 0 5 -4 7 -10 4 -21 -13 -31 7 -11
22 12 8 19 19 16 24 -4 5 5 20 19 32 28 26 25 37 -10 37 -13 0 -26 5 -29 10
-4 6 -10 8 -15 5 -12 -7 -25 15 -25 43 -1 15 5 22 17 22 12 0 16 -5 11 -17 -6
-16 -5 -17 13 -3 10 8 25 21 33 28 7 7 20 11 29 7 8 -3 20 1 26 9 16 21 76 25
76 6 0 -5 -8 -6 -17 -3 -16 6 -16 5 -5 -10 8 -9 17 -15 20 -14 4 1 7 -2 7 -8
0 -5 -6 -9 -13 -9 -10 2 -10 -1 -1 -13 9 -10 14 -11 19 -2 5 8 11 6 18 -7 10
-18 12 -18 29 -1 17 17 17 18 -2 11 -11 -4 -4 4 15 18 25 18 39 22 48 15 24
-19 23 1 -1 25 -23 23 -24 27 -11 57 13 31 10 61 -7 61 -5 0 -9 -5 -9 -11 0
-6 -9 -9 -19 -6 -10 2 -25 1 -32 -4 -10 -6 -15 -1 -19 19 -4 22 -11 27 -38 29
-17 1 -32 -4 -32 -10 0 -5 -3 -8 -6 -5 -8 8 24 68 36 68 6 0 10 9 10 20 0 11
-4 20 -9 20 -5 0 -11 7 -15 15 -3 8 -1 15 3 15 5 0 12 -7 15 -16z m1892 1 c17
-16 14 -18 -10 -9 -9 3 -16 10 -16 15 0 13 9 11 26 -6z m-376 1 c0 -2 -7 -7
-16 -10 -8 -3 -12 -2 -9 4 6 10 25 14 25 6z m-340 -10 c0 -3 -4 -8 -10 -11 -5
-3 -10 -1 -10 4 0 6 5 11 10 11 6 0 10 -2 10 -4z m820 -22 c0 -8 -5 -12 -10
-9 -6 4 -8 11 -5 16 9 14 15 11 15 -7z m135 5 c-4 -6 3 -21 16 -35 18 -19 19
-24 6 -24 -9 0 -23 10 -32 23 -13 19 -17 20 -26 7 -9 -12 -10 -12 -5 3 3 10 6
23 6 28 0 5 9 9 21 9 12 0 17 -4 14 -11z m345 -9 c0 -5 -4 -10 -10 -10 -5 0
-10 5 -10 10 0 6 5 10 10 10 6 0 10 -4 10 -10z m-320 -10 c0 -5 -2 -10 -4 -10
-3 0 -8 5 -11 10 -3 6 -1 10 4 10 6 0 11 -4 11 -10z m-2200 -24 c0 -3 -4 -8
-10 -11 -5 -3 -10 -1 -10 4 0 6 5 11 10 11 6 0 10 -2 10 -4z m1901 -13 c8 -9
12 -25 11 -36 -3 -16 0 -19 18 -14 17 4 31 -2 51 -23 32 -32 38 -53 12 -43
-10 4 -14 2 -10 -4 4 -6 1 -14 -5 -17 -7 -4 -3 -4 10 -2 12 2 22 1 22 -4 0
-13 -25 -30 -51 -32 -20 -3 -24 2 -24 24 -1 19 5 30 18 34 17 5 18 8 4 21 -9
9 -30 16 -47 17 -29 1 -31 3 -29 36 2 20 0 41 -5 48 -11 18 9 15 25 -5z m-241
-7 c0 -3 -4 -8 -10 -11 -5 -3 -10 -1 -10 4 0 6 5 11 10 11 6 0 10 -2 10 -4z
m518 -17 c11 -14 9 -16 -12 -16 -22 0 -24 2 -15 19 6 11 12 18 13 16 1 -1 7
-10 14 -19z m-63 1 c3 -5 2 -10 -4 -10 -5 0 -13 5 -16 10 -3 6 -2 10 4 10 5 0
13 -4 16 -10z m-85 -21 c0 -6 -4 -7 -10 -4 -5 3 -10 11 -10 16 0 6 5 7 10 4 6
-3 10 -11 10 -16z m-307 -42 c-4 -6 -10 -2 -14 9 -12 31 -9 40 6 20 8 -10 11
-24 8 -29z m-346 16 c-9 -9 -20 -13 -24 -9 -4 4 -1 11 7 16 25 16 35 11 17 -7z
m-1387 -12 c0 -10 -9 -21 -19 -24 -15 -4 -18 -1 -13 12 5 14 21 30 30 31 1 0
2 -8 2 -19z m1700 -2 c0 -5 -7 -9 -15 -9 -15 0 -20 12 -9 23 8 8 24 -1 24 -14z
m-629 1 c5 0 9 -7 9 -15 0 -18 -16 -20 -23 -2 -3 6 -3 -2 0 -19 5 -30 4 -30
-31 -26 -40 5 -40 5 -25 35 15 28 30 38 47 32 8 -3 18 -5 23 -5z m442 -20 c3
-11 1 -20 -4 -20 -5 0 -9 9 -9 20 0 11 2 20 4 20 2 0 6 -9 9 -20z m153 -30 c8
0 14 -9 14 -19 0 -11 6 -21 13 -24 6 -2 9 -7 6 -11 -9 -10 -39 4 -39 18 0 6
-10 12 -21 13 -12 1 -19 -1 -15 -4 9 -9 -43 -33 -59 -27 -8 4 -13 10 -10 14 3
5 -2 13 -12 18 -16 9 -16 11 0 27 17 17 57 13 57 -6 0 -6 5 -7 10 -4 6 3 10
16 10 28 l0 21 16 -22 c8 -12 22 -22 30 -22z m84 15 c0 -2 -14 -3 -31 -3 -17
1 -25 4 -18 8 10 7 49 2 49 -5z m-1836 -24 c3 -5 -1 -12 -10 -15 -20 -8 -29
-1 -19 13 8 13 22 14 29 2z m936 -12 c0 -5 -4 -9 -10 -9 -5 0 -10 7 -10 16 0
8 5 12 10 9 6 -3 10 -10 10 -16z m243 1 c3 -11 1 -18 -4 -14 -5 3 -9 12 -9 20
0 20 7 17 13 -6z m812 -14 c8 -7 11 -16 8 -20 -4 -3 0 -6 8 -6 18 -1 -28 -40
-47 -40 -7 0 -18 -8 -23 -17 -10 -17 -10 -17 -11 0 0 10 10 22 23 27 21 8 18
12 -13 14 -18 1 -20 38 -2 44 6 2 12 -5 13 -15 0 -15 2 -14 9 5 11 26 16 27
35 8z m-125 -6 c0 -5 -4 -10 -10 -10 -5 0 -10 5 -10 10 0 6 5 10 10 10 6 0 10
-4 10 -10z m-120 -19 c-1 -20 -19 -32 -43 -25 -33 8 -34 18 -4 31 22 10 47 7
47 -6z m-1194 -27 c-3 -9 -6 -20 -6 -25 0 -5 -9 -9 -20 -9 -25 0 -26 25 -2 39
25 15 35 13 28 -5z m1228 0 c3 -9 4 -20 0 -25 -3 -5 2 -9 11 -9 9 0 13 5 10
10 -3 6 -2 10 4 10 13 0 36 -41 32 -58 -1 -8 2 -19 7 -25 5 -7 12 -20 15 -30
6 -15 4 -16 -14 -6 -11 6 -18 13 -15 16 3 4 -3 13 -15 21 -18 13 -19 16 -5 31
21 23 8 36 -16 14 -17 -15 -19 -15 -36 0 -10 10 -24 17 -30 17 -7 0 -12 4 -12
9 0 5 9 7 20 4 15 -4 20 0 20 16 0 25 15 28 24 5z m-114 -4 c0 -5 -6 -10 -14
-10 -8 0 -21 -3 -30 -6 -9 -3 -16 -1 -16 4 0 9 9 13 53 21 4 0 7 -3 7 -9z
m201 -13 c-10 -9 -11 -8 -5 6 3 10 9 15 12 12 3 -3 0 -11 -7 -18z m-1111 3 c0
-5 -4 -10 -9 -10 -12 0 -20 -59 -9 -66 4 -3 8 -16 8 -30 0 -15 6 -24 16 -24
10 0 14 -6 11 -14 -3 -8 0 -19 6 -24 15 -13 91 -5 96 10 2 7 6 7 11 -1 8 -15
92 5 130 30 14 9 41 19 61 23 21 4 42 13 49 21 7 8 16 13 20 10 5 -3 11 -1 15
5 3 5 1 10 -5 10 -20 0 -1 18 25 22 19 4 23 2 15 -7 -5 -6 -7 -15 -4 -18 4 -3
-11 -14 -32 -24 -22 -9 -51 -25 -66 -35 -16 -11 -29 -14 -33 -9 -8 14 -35 2
-29 -12 4 -12 -43 -49 -79 -63 -12 -4 -16 -2 -12 8 4 11 -1 14 -17 12 -13 -1
-26 -3 -30 -3 -15 -2 -8 -21 7 -21 8 0 15 -4 15 -9 0 -14 52 1 95 28 25 16 40
32 38 41 -4 12 -3 12 5 1 8 -11 14 -11 33 -1 13 7 26 16 29 20 10 13 55 40 67
40 22 0 15 -16 -12 -28 -14 -6 -24 -17 -23 -22 2 -6 -19 -20 -46 -30 -62 -24
-63 -26 -40 -51 l19 -22 -33 17 c-22 11 -37 14 -45 8 -13 -10 -97 -24 -160
-26 -25 -1 -37 3 -37 13 0 8 -6 11 -16 7 -8 -3 -13 -2 -9 3 6 11 -4 41 -15 41
-5 0 -6 -9 -3 -20 4 -14 0 -20 -11 -20 -14 0 -13 -5 4 -35 13 -23 18 -45 14
-60 -4 -15 -2 -25 5 -25 6 0 11 12 11 26 0 16 4 23 11 18 7 -4 8 -20 4 -41 -5
-29 -2 -38 14 -50 12 -8 21 -20 21 -26 0 -9 -2 -9 -8 0 -5 8 -12 9 -22 2 -13
-7 -13 -10 -1 -18 8 -5 9 -11 3 -15 -6 -4 -16 2 -21 11 -10 17 -12 17 -21 1
-6 -10 -20 -18 -31 -18 -18 0 -19 5 -15 35 3 19 2 35 -3 35 -13 0 -19 33 -10
55 6 16 8 14 8 -12 1 -35 7 -39 31 -23 11 7 11 10 2 10 -7 0 -12 8 -11 18 3
33 -1 52 -12 52 -5 0 -7 -4 -4 -10 3 -5 2 -10 -4 -10 -15 0 -23 18 -11 25 11
7 2 64 -13 83 -18 23 -2 138 24 171 25 31 39 39 39 21z m1155 0 c-3 -5 -11
-10 -16 -10 -6 0 -7 5 -4 10 3 6 11 10 16 10 6 0 7 -4 4 -10z m-269 -29 c11 9
14 8 14 -4 0 -8 -7 -20 -15 -27 -9 -8 -15 -8 -15 -2 0 6 -2 16 -3 24 -2 7 -2
9 1 5 2 -4 10 -3 18 4z m-956 -21 c0 -5 -5 -10 -11 -10 -5 0 -7 5 -4 10 3 6 8
10 11 10 2 0 4 -4 4 -10z m570 6 c0 -3 -4 -8 -10 -11 -5 -3 -10 -1 -10 4 0 6
5 11 10 11 6 0 10 -2 10 -4z m-975 -16 c-3 -5 -11 -10 -16 -10 -6 0 -7 5 -4
10 3 6 11 10 16 10 6 0 7 -4 4 -10z m1385 -5 c-7 -9 -15 -13 -19 -10 -3 3 1
10 9 15 21 14 24 12 10 -5z m65 5 c3 -5 -1 -10 -9 -10 -9 0 -16 5 -16 10 0 6
4 10 9 10 6 0 13 -4 16 -10z m299 -19 c6 -9 -84 -24 -93 -15 -10 9 23 24 56
24 17 0 34 -4 37 -9z m-253 -34 c25 -23 37 -57 21 -57 -5 0 -12 8 -15 18 -4 9
-14 27 -23 40 -21 28 -14 28 17 -1z m355 1 c-9 -5 -14 -13 -11 -19 4 -5 -1 -9
-10 -9 -11 0 -13 4 -8 13 4 6 8 15 9 20 1 4 2 9 3 12 0 2 8 2 17 -2 15 -5 15
-7 0 -15z m-512 -6 c2 -4 -4 -8 -15 -8 -10 0 -19 4 -19 8 0 10 27 10 34 0z
m476 -2 c0 -5 -4 -10 -10 -10 -5 0 -10 -5 -10 -11 0 -5 4 -8 9 -5 5 3 15 -2
22 -11 12 -14 11 -15 -9 -9 -18 6 -22 4 -22 -13 0 -12 -4 -21 -9 -21 -10 0 -8
61 3 79 9 14 26 15 26 1z m-900 -30 c0 -5 -7 -10 -16 -10 -8 0 -12 5 -9 10 3
6 10 10 16 10 5 0 9 -4 9 -10z m54 -25 c-14 -19 -21 -35 -15 -35 6 0 11 -4 11
-10 0 -5 -6 -10 -14 -10 -8 0 -16 -7 -20 -15 -3 -8 -17 -20 -32 -25 -21 -8
-25 -15 -20 -35 3 -13 2 -26 -3 -29 -5 -3 -11 3 -14 14 -3 11 -11 20 -17 20
-7 0 -10 -6 -7 -13 5 -12 -27 -60 -35 -52 -2 2 -4 -5 -4 -16 0 -13 5 -18 16
-14 14 5 9 0 -49 -42 -13 -10 -39 -24 -59 -31 -30 -10 -39 -10 -59 3 -27 18
-29 30 -7 39 10 4 22 -1 29 -10 11 -15 13 -15 18 7 9 33 -2 39 -48 29 -57 -14
-65 -12 -65 10 0 25 16 26 29 3 7 -12 10 -14 11 -4 0 9 7 11 21 8 36 -9 67 11
61 40 -6 33 17 48 36 22 7 -10 10 -24 7 -29 -3 -6 3 -10 15 -10 16 0 19 4 14
24 -3 14 0 29 10 39 9 8 16 22 16 30 0 9 6 17 13 20 9 3 9 7 -1 19 -10 13 -10
17 3 22 8 3 15 1 15 -4 0 -6 7 -10 15 -10 25 0 17 -26 -12 -39 -18 -8 -23 -15
-15 -23 13 -13 48 11 122 86 30 31 56 56 58 56 2 0 -9 -16 -24 -35z m656 25
c0 -5 7 -10 15 -10 8 0 15 -6 15 -13 0 -25 -13 -27 -25 -4 -6 12 -19 21 -28
21 -9 -1 -17 2 -17 7 0 5 9 9 20 9 11 0 20 -4 20 -10z m-695 -25 c-34 -28 -54
-33 -34 -9 12 14 44 32 59 33 3 0 -8 -11 -25 -24z m661 -30 c7 -19 14 -46 14
-60 0 -27 6 -30 29 -16 15 10 8 61 -9 61 -6 0 -10 4 -10 9 0 6 19 8 43 5 34
-4 40 -3 30 7 -7 7 -13 17 -13 21 0 11 38 10 45 -2 10 -15 -18 -49 -38 -47
-28 3 -33 -21 -6 -25 12 -2 23 -11 25 -21 1 -9 -2 -15 -7 -11 -5 3 -23 -2 -40
-10 -17 -9 -36 -13 -43 -9 -14 9 -46 11 -41 3 2 -3 0 -12 -6 -20 -5 -8 -9 -10
-9 -4 0 6 -11 24 -24 39 -16 18 -23 37 -21 54 2 14 4 29 4 34 1 4 8 7 17 7 8
0 12 -4 9 -10 -3 -5 -3 -25 1 -45 4 -25 12 -35 25 -35 25 0 31 14 14 36 -14
18 -21 74 -9 74 3 0 12 -16 20 -35z m-272 -1 c23 -9 21 -53 -1 -49 -10 2 -21
4 -25 4 -10 1 -10 35 -1 44 8 8 8 8 27 1z m423 -28 c-3 -8 1 -20 9 -26 11 -10
14 -9 15 6 1 11 1 21 1 24 0 3 8 6 19 6 10 0 19 -6 19 -12 0 -6 9 -14 21 -17
12 -3 18 -10 14 -16 -3 -6 -3 -11 2 -11 4 0 8 -16 8 -35 0 -19 -4 -33 -10 -32
-5 2 -10 8 -10 13 -1 19 -28 59 -33 46 -2 -6 -13 -12 -25 -12 -18 0 -19 -2 -7
-10 13 -9 13 -11 0 -20 -21 -14 -30 -12 -24 4 3 8 0 17 -6 21 -6 4 -8 16 -4
27 4 14 2 18 -5 14 -15 -10 -14 11 2 29 16 18 21 19 14 1z m-1027 -23 c-1 -10
-50 -47 -50 -38 0 17 22 45 35 45 8 0 15 -3 15 -7z m280 4 c0 -1 -21 -20 -47
-42 -27 -21 -41 -30 -32 -19 9 10 14 26 12 34 -3 11 -2 12 4 2 7 -10 14 -8 28
8 15 17 35 27 35 17z m1121 -30 c-6 -8 -9 -17 -6 -21 3 -3 -1 -1 -7 4 -10 9
-10 13 2 20 21 13 24 12 11 -3z m-2021 -52 c0 -13 -64 -85 -75 -85 -3 0 -5 9
-5 20 0 11 7 20 15 20 8 0 15 6 15 14 0 16 26 46 41 46 5 0 9 -7 9 -15z m1104
-10 c3 -8 1 -15 -4 -15 -6 0 -10 7 -10 15 0 8 2 15 4 15 2 0 6 -7 10 -15z
m105 -40 c26 -13 31 -19 20 -26 -11 -7 -11 -9 4 -9 9 0 17 -3 18 -7 0 -5 2
-18 3 -30 1 -12 -1 -20 -5 -17 -4 2 -13 -2 -21 -9 -7 -7 -23 -13 -35 -13 -18
0 -21 5 -17 22 7 26 -14 43 -27 23 -6 -10 -9 -11 -9 -1 0 6 -6 12 -14 12 -30
0 -31 62 -1 74 8 3 15 13 15 23 0 16 2 15 18 -3 9 -12 32 -30 51 -39z m821 35
c0 -5 -4 -10 -10 -10 -5 0 -10 5 -10 10 0 6 5 10 10 10 6 0 10 -4 10 -10z
m-1579 -17 c13 -16 12 -17 -3 -4 -17 13 -22 21 -14 21 2 0 10 -8 17 -17z m319
3 c0 -3 -4 -8 -10 -11 -5 -3 -10 -1 -10 4 0 6 5 11 10 11 6 0 10 -2 10 -4z
m733 -33 c3 -16 9 -37 13 -47 5 -14 4 -17 -4 -12 -7 4 -12 16 -12 27 0 10 -7
19 -15 19 -8 0 -15 9 -15 20 0 30 27 24 33 -7z m44 13 c-4 -9 1 -16 10 -18 15
-3 15 -4 0 -17 -14 -11 -18 -11 -23 3 -6 17 1 46 12 46 3 0 4 -6 1 -14z m403
10 c0 -3 -4 -8 -10 -11 -5 -3 -10 -1 -10 4 0 6 5 11 10 11 6 0 10 -2 10 -4z
m-1850 -16 c0 -3 4 -11 9 -19 7 -11 14 -10 39 5 29 17 32 17 50 1 10 -9 24
-17 30 -17 7 0 12 -3 12 -8 0 -13 -35 -39 -48 -34 -7 2 -12 -3 -12 -12 0 -8
-4 -18 -10 -21 -5 -3 -7 0 -4 9 5 12 1 14 -23 7 -18 -5 -37 -5 -47 1 -10 5
-20 7 -23 4 -4 -3 -2 -6 4 -6 6 0 9 -9 6 -20 -4 -17 -2 -19 13 -13 16 6 17 5
6 -9 -9 -11 -10 -18 -2 -23 6 -3 7 -11 4 -17 -5 -7 -1 -9 9 -5 9 3 19 2 22 -3
4 -6 0 -10 -8 -10 -8 0 -17 -7 -21 -15 -7 -19 -53 -38 -85 -36 -32 2 -35 5
-20 29 15 24 4 61 -13 44 -7 -7 -16 -12 -20 -12 -12 0 -10 48 2 55 15 9 12 27
-2 20 -7 -4 1 5 17 19 23 20 26 26 13 26 -10 0 -18 5 -18 10 0 6 5 10 11 10 5
0 8 4 4 10 -3 5 -13 6 -23 3 -14 -5 -15 -3 -5 7 10 11 15 11 27 0 9 -7 13 -16
11 -21 -5 -8 33 -34 40 -27 1 2 6 18 10 36 7 33 -2 41 -23 20 -8 -8 -12 -9
-12 -1 0 6 6 13 13 16 16 5 67 3 67 -3z m1328 -8 c13 11 15 10 10 -4 -5 -11 0
-18 18 -22 13 -4 24 -11 24 -17 0 -6 -9 -8 -22 -3 -38 12 -68 35 -61 47 5 8 8
7 11 -1 3 -10 7 -10 20 0z m-1098 -40 c0 -24 -2 -25 -15 -11 -9 9 -13 23 -9
32 9 24 24 11 24 -21z m-475 -20 c18 -39 23 -42 55 -40 29 3 35 0 35 -17 0
-13 -8 -21 -23 -23 -20 -3 -21 -5 -7 -19 24 -23 11 -27 -25 -8 -18 9 -35 13
-39 8 -3 -4 -22 -9 -41 -11 -19 -1 -37 -7 -38 -12 -2 -6 -8 -8 -13 -5 -5 3 -3
14 3 25 11 17 8 23 -18 47 -47 43 -55 85 -13 62 13 -6 19 -6 19 1 0 5 7 10 15
10 8 0 15 5 15 11 0 6 7 9 15 5 8 -3 15 -1 15 5 0 23 26 1 45 -39z m2045 23
c0 -8 -9 -15 -20 -15 -14 0 -20 -7 -20 -22 0 -20 -1 -21 -20 -3 -30 27 -25 43
18 48 20 2 38 4 40 5 1 1 2 -5 2 -13z m-193 -27 c-3 -8 -6 -5 -6 6 -1 11 2 17
5 13 3 -3 4 -12 1 -19z m-1777 -13 c-7 -9 -15 -13 -17 -11 -7 7 7 26 19 26 6
0 6 -6 -2 -15z m1820 -19 c0 -7 -7 -19 -15 -26 -16 -13 -20 -3 -9 24 8 20 24
21 24 2z m-1473 -21 c-12 -24 -31 -33 -41 -17 -6 11 5 28 24 35 26 10 28 8 17
-18z m1010 -23 c1 -35 -9 -52 -32 -52 -5 1 -2 5 8 11 9 5 17 15 17 22 0 7 -4
6 -10 -3 -14 -23 -22 -6 -15 33 9 46 31 39 32 -11z m613 18 c-24 -15 -36 -11
-14 4 10 8 21 12 24 10 2 -3 -2 -9 -10 -14z m-2190 0 c0 -5 -5 -10 -11 -10 -5
0 -7 5 -4 10 3 6 8 10 11 10 2 0 4 -4 4 -10z m455 -10 c-4 -11 -3 -19 2 -18
11 4 13 -4 7 -29 -4 -13 -13 -23 -21 -23 -13 0 -13 3 -3 15 10 12 10 18 0 30
-10 12 -10 18 0 30 17 21 23 19 15 -5z m1062 -12 c-3 -7 -5 -2 -5 12 0 14 2
19 5 13 2 -7 2 -19 0 -25z m508 -8 c3 -5 -1 -10 -9 -10 -9 0 -16 5 -16 10 0 6
4 10 9 10 6 0 13 -4 16 -10z m-561 -26 c-5 -19 -3 -25 4 -20 8 5 10 2 6 -8 -5
-13 -8 -13 -20 -2 -7 8 -19 17 -26 19 -9 4 -8 10 6 21 28 23 37 20 30 -10z
m650 11 c3 -9 0 -15 -9 -15 -9 0 -12 6 -9 15 4 8 7 15 9 15 2 0 5 -7 9 -15z
m36 5 c0 -5 -5 -10 -11 -10 -5 0 -7 5 -4 10 3 6 8 10 11 10 2 0 4 -4 4 -10z
m-800 -10 c0 -5 -2 -10 -4 -10 -3 0 -8 5 -11 10 -3 6 -1 10 4 10 6 0 11 -4 11
-10z m60 -54 c0 -20 -13 -27 -30 -15 -11 6 -12 9 -2 9 7 0 10 5 7 10 -3 6 1
10 9 10 9 0 16 -6 16 -14z m520 -20 c0 -3 -4 -8 -10 -11 -5 -3 -10 -1 -10 4 0
6 5 11 10 11 6 0 10 -2 10 -4z m-1575 -16 c16 -7 13 -9 -17 -9 -21 -1 -38 4
-38 9 0 12 27 12 55 0z m-65 -10 c0 -5 -5 -10 -11 -10 -5 0 -7 5 -4 10 3 6 8
10 11 10 2 0 4 -4 4 -10z m1305 0 c-3 -5 -12 -10 -18 -10 -7 0 -6 4 3 10 19
12 23 12 15 0z m315 -10 c0 -5 -2 -10 -4 -10 -3 0 -8 5 -11 10 -3 6 -1 10 4
10 6 0 11 -4 11 -10z m-1555 -20 c-3 -5 -11 -10 -16 -10 -6 0 -7 5 -4 10 3 6
11 10 16 10 6 0 7 -4 4 -10z m995 -15 c7 -9 11 -17 8 -20 -2 -2 -12 4 -21 15
-9 11 -13 20 -8 20 5 0 14 -7 21 -15z m520 -5 c-24 -15 -36 -11 -14 4 10 8 21
12 24 10 2 -3 -2 -9 -10 -14z m-1340 -5 c0 -8 -4 -15 -10 -15 -5 0 -10 7 -10
15 0 8 5 15 10 15 6 0 10 -7 10 -15z m-100 -25 c0 -10 9 -22 21 -25 13 -4 17
-11 12 -16 -10 -10 -68 14 -79 32 -7 12 27 40 38 33 5 -3 8 -14 8 -24z m1186
-9 c-11 -18 -34 -1 -29 20 5 18 7 19 21 6 8 -8 11 -20 8 -26z m-1141 -1 c3 -5
1 -10 -4 -10 -6 0 -11 5 -11 10 0 6 2 10 4 10 3 0 8 -4 11 -10z m1001 -5 c25
-19 14 -19 -22 0 -16 8 -22 15 -13 15 8 0 24 -7 35 -15z m-106 -35 c0 -4 -9
-10 -20 -13 -11 -3 -24 -16 -29 -29 -8 -20 -10 -21 -16 -6 -4 10 -13 14 -23
11 -11 -5 -14 -2 -9 10 5 13 1 17 -15 17 -17 0 -19 3 -10 12 18 18 54 18 47 0
-4 -10 0 -12 11 -8 8 3 22 6 31 6 10 0 13 6 9 16 -5 14 -4 15 9 4 8 -7 15 -16
15 -20z m-167 -52 c-10 -17 -31 -7 -26 11 4 16 8 17 18 8 7 -7 11 -15 8 -19z
m367 12 c0 -5 -4 -10 -10 -10 -5 0 -10 5 -10 10 0 6 5 10 10 10 6 0 10 -4 10
-10z m-274 -57 c-4 -10 -2 -13 8 -10 20 8 28 -4 13 -21 -9 -13 -9 -14 1 -8 7
4 12 1 12 -8 0 -23 -8 -20 -44 18 -29 29 -31 34 -17 43 20 13 34 6 27 -14z
m279 -6 c6 -5 3 -7 -6 -4 -13 4 -16 1 -12 -16 5 -21 5 -21 -12 -5 -15 14 -16
20 -5 33 7 8 16 12 19 8 3 -4 11 -12 16 -16z m-335 -27 c0 -5 -5 -10 -11 -10
-5 0 -7 5 -4 10 3 6 8 10 11 10 2 0 4 -4 4 -10z m308 -42 c-6 -18 -28 -21 -28
-4 0 9 7 16 16 16 9 0 14 -5 12 -12z m-858 -118 c0 -5 -2 -10 -4 -10 -3 0 -8
5 -11 10 -3 6 -1 10 4 10 6 0 11 -4 11 -10z"/>
<path d="M2085 3169 c4 -6 10 -8 13 -5 3 3 11 1 19 -5 10 -9 13 -8 13 5 0 11
-9 16 -26 16 -15 0 -23 -4 -19 -11z"/>
<path d="M2093 3079 c17 -27 38 -32 56 -13 15 15 15 16 0 11 -9 -3 -28 1 -42
8 -25 13 -25 12 -14 -6z"/>
<path d="M2516 2803 c-6 -14 -5 -15 5 -6 7 7 10 15 7 18 -3 3 -9 -2 -12 -12z"/>
<path d="M1316 3103 c-11 -28 -6 -38 19 -38 14 0 25 3 25 8 0 4 -5 7 -11 7 -6
0 -2 8 10 18 l22 17 -30 1 c-18 1 -32 -5 -35 -13z"/>
<path d="M1390 3025 c0 -8 5 -15 10 -15 6 0 10 7 10 15 0 8 -4 15 -10 15 -5 0
-10 -7 -10 -15z"/>
<path d="M1176 3004 c-8 -21 -3 -26 17 -18 9 3 13 12 10 20 -7 19 -19 18 -27
-2z"/>
<path d="M2172 2773 c2 -10 10 -18 18 -18 8 0 26 -6 38 -13 25 -14 72 -9 72 8
0 6 -9 10 -19 10 -11 0 -23 5 -26 10 -3 6 -12 10 -18 9 -9 0 -9 -2 1 -6 6 -2
12 -9 12 -14 0 -16 -25 -10 -43 11 -21 25 -40 26 -35 3z"/>
<path d="M1330 2685 c-7 -9 -11 -17 -9 -20 3 -2 10 5 17 15 14 24 10 26 -8 5z"/>
<path d="M1364 2675 c-2 -21 0 -22 12 -10 17 17 18 35 2 35 -7 0 -14 -11 -14
-25z"/>
<path d="M2295 2680 c-8 -13 5 -13 25 0 13 8 13 10 -2 10 -9 0 -20 -4 -23 -10z"/>
<path d="M1700 2673 c0 -5 5 -15 10 -23 7 -12 9 -10 7 8 -1 19 -17 33 -17 15z"/>
<path d="M1739 2667 c6 -8 7 -18 3 -23 -4 -4 1 -2 11 5 14 11 15 16 5 22 -20
13 -32 10 -19 -4z"/>
<path d="M2253 2643 c1 -19 12 -34 30 -46 22 -14 28 -23 23 -40 -6 -25 22 -51
41 -39 21 13 9 60 -20 77 -15 9 -25 20 -22 25 6 10 -29 50 -44 50 -6 0 -9 -12
-8 -27z"/>
<path d="M1640 2654 c0 -3 7 -12 15 -20 16 -17 18 -14 9 10 -6 15 -24 23 -24
10z"/>
<path d="M1599 2632 c13 -24 3 -62 -16 -62 -10 0 -14 -7 -10 -19 3 -12 -1 -22
-9 -25 -8 -3 -14 -10 -14 -16 0 -6 5 -8 10 -5 6 3 14 4 20 0 13 -8 -21 -45
-42 -45 -9 0 -20 -5 -24 -12 -5 -8 -2 -9 9 -5 9 3 19 2 22 -3 3 -6 15 -6 29 0
13 5 26 6 29 4 3 -3 24 5 46 18 27 15 39 28 36 37 -5 12 -3 12 12 -1 24 -20
53 -30 53 -18 0 6 -5 10 -11 10 -8 0 -8 4 0 14 12 14 5 46 -9 46 -5 0 -16 3
-26 7 -12 4 -15 3 -10 -5 5 -8 0 -12 -13 -12 -16 0 -21 -6 -21 -26 0 -14 -4
-23 -10 -19 -5 3 -10 17 -10 31 0 14 -4 23 -8 20 -4 -2 -8 4 -8 15 0 10 4 19
8 19 5 0 1 11 -8 25 -8 13 -13 29 -9 35 3 5 -1 10 -10 10 -12 0 -14 -4 -6 -18z"/>
<path d="M1531 2609 c-2 -24 27 -45 41 -31 9 9 9 15 0 24 -9 9 -12 9 -12 0 0
-18 -18 -14 -23 6 -4 14 -5 14 -6 1z"/>
<path d="M1475 2600 c3 -5 8 -10 11 -10 2 0 4 5 4 10 0 6 -5 10 -11 10 -5 0
-7 -4 -4 -10z"/>
<path d="M2096 2596 c4 -11 2 -21 -7 -27 -10 -6 -11 -9 -1 -9 18 0 27 29 13
43 -9 9 -11 8 -5 -7z"/>
<path d="M1660 2570 c-13 -8 -13 -10 2 -10 9 0 20 5 23 10 8 13 -5 13 -25 0z"/>
<path d="M1755 2540 c-3 -5 -1 -10 4 -10 6 0 11 5 11 10 0 6 -2 10 -4 10 -3 0
-8 -4 -11 -10z"/>
<path d="M1515 2520 c4 -6 -3 -9 -16 -7 -12 1 -24 -4 -27 -12 -3 -10 0 -12 11
-8 12 4 14 0 11 -18 -4 -22 -3 -23 26 -12 16 6 30 17 30 25 0 7 -4 11 -9 8 -5
-4 -7 3 -4 14 4 14 0 20 -11 20 -10 0 -14 -4 -11 -10z"/>
<path d="M1377 2491 c-4 -19 -5 -36 -2 -39 3 -3 5 0 5 7 0 7 10 22 23 33 15
14 17 18 5 14 -9 -3 -18 0 -21 7 -2 6 -7 -4 -10 -22z"/>
<path d="M1946 2504 c-4 -9 -4 -19 -1 -22 2 -3 7 3 11 12 4 9 4 19 1 22 -2 3
-7 -3 -11 -12z"/>
<path d="M1175 2475 c-19 -15 -24 -24 -15 -24 15 0 60 32 60 43 0 12 -16 5
-45 -19z"/>
<path d="M2130 2490 c0 -5 5 -10 11 -10 5 0 7 5 4 10 -3 6 -8 10 -11 10 -2 0
-4 -4 -4 -10z"/>
<path d="M2179 2470 c-9 -50 -8 -60 6 -60 17 0 20 27 5 50 -5 8 -10 13 -11 10z"/>
<path d="M1235 2379 c-4 -5 -19 -15 -33 -20 -23 -9 -24 -11 -10 -25 14 -14 20
-12 63 20 l47 36 -31 0 c-16 0 -33 -5 -36 -11z"/>
<path d="M1825 2370 c-3 -5 -1 -10 4 -10 6 0 11 5 11 10 0 6 -2 10 -4 10 -3 0
-8 -4 -11 -10z"/>
<path d="M1470 1996 c0 -2 7 -9 15 -16 13 -11 14 -10 9 4 -5 14 -24 23 -24 12z"/>
<path d="M1537 1871 c3 -12 10 -21 15 -21 13 0 6 32 -9 37 -7 3 -9 -3 -6 -16z"/>
<path d="M1570 1660 c-6 -12 -9 -24 -7 -27 3 -2 11 5 17 17 6 12 9 24 7 27 -3
2 -11 -5 -17 -17z"/>
<path d="M1720 1650 c0 -5 5 -10 11 -10 5 0 7 5 4 10 -3 6 -8 10 -11 10 -2 0
-4 -4 -4 -10z"/>
<path d="M1380 1549 c0 -11 36 -17 50 -9 7 5 0 9 -19 12 -17 2 -31 1 -31 -3z"/>
<path d="M1487 1537 c-13 -21 -13 -25 9 -52 27 -34 32 -27 8 10 -14 22 -14 23
5 18 16 -4 19 -1 14 16 -8 31 -19 34 -36 8z"/>
<path d="M1663 1548 c5 -15 2 -16 -18 -8 -23 9 -24 8 -13 -10 7 -11 18 -20 24
-20 17 0 26 32 13 44 -9 8 -10 7 -6 -6z"/>
<path d="M919 2511 c8 -5 10 -14 6 -21 -5 -9 -4 -11 3 -6 18 11 14 36 -5 36
-14 0 -15 -2 -4 -9z"/>
<path d="M900 2200 c0 -5 5 -10 10 -10 6 0 10 5 10 10 0 6 -4 10 -10 10 -5 0
-10 -4 -10 -10z"/>
<path d="M930 2190 c0 -5 5 -10 10 -10 6 0 10 5 10 10 0 6 -4 10 -10 10 -5 0
-10 -4 -10 -10z"/>
<path d="M2057 1933 c-4 -6 3 -19 16 -29 12 -11 17 -12 11 -4 -6 8 -13 22 -16
30 -3 9 -7 10 -11 3z"/>
<path d="M2666 1921 c-4 -5 -2 -12 3 -15 5 -4 12 -2 15 3 4 5 2 12 -3 15 -5 4
-12 2 -15 -3z"/>
<path d="M1965 1460 c-3 -5 -2 -10 4 -10 5 0 13 5 16 10 3 6 2 10 -4 10 -5 0
-13 -4 -16 -10z"/>
<path d="M2091 1451 c-8 -6 -9 -11 -3 -15 6 -3 14 -1 17 5 9 14 2 20 -14 10z"/>
<path d="M1977 1429 c-18 -20 -18 -21 5 -13 21 6 22 6 8 -11 -8 -10 -14 -26
-12 -37 2 -10 -1 -18 -6 -18 -19 0 -22 -33 -6 -51 21 -23 34 -24 34 -4 0 8 4
15 10 15 5 0 7 6 4 14 -4 10 4 12 35 9 51 -6 53 7 6 54 -39 39 -40 40 -22 46
6 2 2 2 -10 1 -12 -2 -23 1 -25 6 -2 6 -11 1 -21 -11z m78 -49 c3 -5 1 -10 -4
-10 -6 0 -11 5 -11 10 0 6 2 10 4 10 3 0 8 -4 11 -10z"/>
<path d="M2080 1390 c0 -5 5 -10 11 -10 5 0 7 5 4 10 -3 6 -8 10 -11 10 -2 0
-4 -4 -4 -10z"/>
<path d="M967 1656 c-6 -14 0 -26 14 -26 8 0 6 26 -3 35 -3 3 -8 -1 -11 -9z"/>
<path d="M2680 1540 c0 -5 5 -10 11 -10 5 0 7 5 4 10 -3 6 -8 10 -11 10 -2 0
-4 -4 -4 -10z"/>
<path d="M1735 1500 c3 -5 8 -10 11 -10 2 0 4 5 4 10 0 6 -5 10 -11 10 -5 0
-7 -4 -4 -10z"/>
<path d="M1450 1170 c0 -5 11 -10 25 -10 14 0 25 5 25 10 0 6 -11 10 -25 10
-14 0 -25 -4 -25 -10z"/>
<path d="M1705 1070 c4 -6 11 -8 16 -5 14 9 11 15 -7 15 -8 0 -12 -5 -9 -10z"/>
<path d="M1106 934 c-8 -21 -4 -25 14 -14 11 7 12 12 4 20 -8 8 -13 7 -18 -6z"/>
<path d="M740 900 c0 -5 5 -10 10 -10 6 0 10 5 10 10 0 6 -4 10 -10 10 -5 0
-10 -4 -10 -10z"/>
</g>
</svg>
